<svg width="55" height="20" viewBox="0 0 55 20" fill="none" xmlns="http://www.w3.org/2000/svg">
<rect width="55" height="20" rx="4" transform="matrix(-1 0 0 1 55 0)" fill="#B3251E"/>
<path d="M9.838 15.224C9.10067 15.224 8.41467 15.0933 7.78 14.832C7.14533 14.5613 6.59 14.1927 6.114 13.726C5.64733 13.25 5.27867 12.6947 5.008 12.06C4.74667 11.416 4.616 10.7253 4.616 9.988C4.616 9.24133 4.74667 8.55067 5.008 7.916C5.27867 7.28133 5.64733 6.73067 6.114 6.264C6.59 5.788 7.14533 5.41933 7.78 5.158C8.41467 4.88733 9.10067 4.752 9.838 4.752C10.3607 4.752 10.846 4.81733 11.294 4.948C11.742 5.07867 12.1527 5.26533 12.526 5.508C12.8993 5.75067 13.24 6.04467 13.548 6.39L12.47 7.44C12.246 7.16933 12.0033 6.94533 11.742 6.768C11.4807 6.58133 11.1913 6.44133 10.874 6.348C10.566 6.25467 10.2253 6.208 9.852 6.208C9.18 6.208 8.564 6.36667 8.004 6.684C7.444 6.992 6.996 7.426 6.66 7.986C6.33333 8.546 6.17 9.21333 6.17 9.988C6.17 10.7533 6.33333 11.4207 6.66 11.99C6.996 12.55 7.444 12.9887 8.004 13.306C8.564 13.614 9.18 13.768 9.852 13.768C10.4587 13.768 10.9953 13.642 11.462 13.39C11.938 13.138 12.358 12.7927 12.722 12.354L13.828 13.418C13.52 13.782 13.1607 14.0993 12.75 14.37C12.3393 14.6407 11.8913 14.8507 11.406 15C10.9207 15.1493 10.398 15.224 9.838 15.224ZM15.2313 15V7.86H16.6593V8.91H16.7433C16.8553 8.66733 17.0139 8.45267 17.2193 8.266C17.4339 8.07933 17.6766 7.93 17.9473 7.818C18.2273 7.706 18.5166 7.65 18.8153 7.65C19.0113 7.65 19.1746 7.664 19.3053 7.692C19.4453 7.71067 19.5713 7.74333 19.6833 7.79V9.358C19.5059 9.28333 19.3239 9.22267 19.1373 9.176C18.9599 9.12933 18.7733 9.106 18.5773 9.106C18.2226 9.106 17.9053 9.204 17.6253 9.4C17.3546 9.58667 17.1399 9.83867 16.9813 10.156C16.8226 10.4733 16.7433 10.828 16.7433 11.22V15H15.2313ZM20.7547 15V7.86H22.2667V15H20.7547ZM21.5107 6.81C21.2307 6.81 20.9881 6.712 20.7827 6.516C20.5867 6.31067 20.4887 6.068 20.4887 5.788C20.4887 5.49867 20.5867 5.26067 20.7827 5.074C20.9881 4.878 21.2307 4.78 21.5107 4.78C21.8001 4.78 22.0427 4.878 22.2387 5.074C22.4347 5.26067 22.5327 5.49867 22.5327 5.788C22.5327 6.068 22.4347 6.31067 22.2387 6.516C22.0427 6.712 21.8001 6.81 21.5107 6.81ZM23.5043 9.176V7.86H24.7643V5.844H26.2623V7.86H28.0123V9.176H26.2623V12.606C26.2623 12.9793 26.337 13.2547 26.4863 13.432C26.645 13.6093 26.883 13.698 27.2003 13.698C27.3496 13.698 27.4896 13.6793 27.6203 13.642C27.751 13.5953 27.8956 13.5253 28.0543 13.432V14.902C27.877 14.9673 27.695 15.0187 27.5083 15.056C27.331 15.0933 27.1396 15.112 26.9343 15.112C26.2623 15.112 25.7303 14.916 25.3383 14.524C24.9556 14.132 24.7643 13.6 24.7643 12.928V9.176H23.5043ZM29.4637 15V7.86H30.9757V15H29.4637ZM30.2197 6.81C29.9397 6.81 29.697 6.712 29.4917 6.516C29.2957 6.31067 29.1977 6.068 29.1977 5.788C29.1977 5.49867 29.2957 5.26067 29.4917 5.074C29.697 4.878 29.9397 4.78 30.2197 4.78C30.509 4.78 30.7517 4.878 30.9477 5.074C31.1437 5.26067 31.2417 5.49867 31.2417 5.788C31.2417 6.068 31.1437 6.31067 30.9477 6.516C30.7517 6.712 30.509 6.81 30.2197 6.81ZM36.0353 15.224C35.3166 15.224 34.6773 15.0607 34.1173 14.734C33.5666 14.4073 33.1326 13.9593 32.8153 13.39C32.5073 12.8113 32.3533 12.158 32.3533 11.43C32.3533 10.702 32.5073 10.0533 32.8153 9.484C33.1326 8.91467 33.5666 8.46667 34.1173 8.14C34.6773 7.804 35.3166 7.636 36.0353 7.636C36.8286 7.636 37.4959 7.81333 38.0373 8.168C38.5879 8.52267 38.9799 9.00333 39.2133 9.61L37.8413 10.17C37.6733 9.78733 37.4306 9.50267 37.1133 9.316C36.8053 9.12 36.4366 9.022 36.0073 9.022C35.6153 9.022 35.2559 9.12467 34.9293 9.33C34.6026 9.526 34.3413 9.80133 34.1453 10.156C33.9493 10.5107 33.8513 10.9353 33.8513 11.43C33.8513 11.9153 33.9493 12.34 34.1453 12.704C34.3413 13.068 34.6026 13.348 34.9293 13.544C35.2559 13.74 35.6153 13.838 36.0073 13.838C36.4646 13.838 36.8519 13.7353 37.1693 13.53C37.4866 13.3247 37.7339 13.0353 37.9113 12.662L39.2553 13.25C38.9939 13.8193 38.5879 14.2907 38.0373 14.664C37.4959 15.0373 36.8286 15.224 36.0353 15.224ZM42.7376 15.224C42.2149 15.224 41.7576 15.1213 41.3656 14.916C40.9736 14.7107 40.6609 14.4307 40.4276 14.076C40.2036 13.712 40.0916 13.2967 40.0916 12.83C40.0916 12.3167 40.2222 11.8827 40.4836 11.528C40.7542 11.1733 41.1089 10.9027 41.5476 10.716C41.9956 10.5293 42.4902 10.436 43.0316 10.436C43.3396 10.436 43.6196 10.4593 43.8716 10.506C44.1236 10.5433 44.3476 10.59 44.5436 10.646C44.7396 10.702 44.8936 10.7627 45.0056 10.828V10.45C45.0056 9.98333 44.8376 9.61 44.5016 9.33C44.1656 9.05 43.7316 8.91 43.1996 8.91C42.8356 8.91 42.4902 8.994 42.1636 9.162C41.8369 9.32067 41.5709 9.54 41.3656 9.82L40.3436 9.022C40.5489 8.73267 40.7962 8.48533 41.0856 8.28C41.3842 8.07467 41.7156 7.916 42.0796 7.804C42.4436 7.692 42.8309 7.636 43.2416 7.636C44.2682 7.636 45.0616 7.89267 45.6216 8.406C46.1816 8.91 46.4616 9.61933 46.4616 10.534V15H45.0056V14.118H44.9216C44.7909 14.3047 44.6182 14.482 44.4036 14.65C44.1982 14.818 43.9556 14.9533 43.6756 15.056C43.3956 15.168 43.0829 15.224 42.7376 15.224ZM43.0036 13.992C43.3956 13.992 43.7409 13.8987 44.0396 13.712C44.3382 13.5253 44.5716 13.2827 44.7396 12.984C44.9169 12.676 45.0056 12.3447 45.0056 11.99C44.7909 11.8687 44.5389 11.7707 44.2496 11.696C43.9602 11.612 43.6476 11.57 43.3116 11.57C42.7049 11.57 42.2709 11.6913 42.0096 11.934C41.7482 12.1767 41.6176 12.48 41.6176 12.844C41.6176 13.18 41.7389 13.4553 41.9816 13.67C42.2336 13.8847 42.5742 13.992 43.0036 13.992ZM48.0985 15V4.976H49.6105V15H48.0985Z" fill="white"/>
</svg>
