<svg width="89" height="20" viewBox="0 0 89 20" fill="none" xmlns="http://www.w3.org/2000/svg">
<rect width="89" height="20" rx="4" transform="matrix(-1 0 0 1 89 0)" fill="#DB372D"/>
<path d="M5.12 15V4.976H6.66V9.148H11.35V4.976H12.876V15H11.35V10.604H6.66V15H5.12ZM14.8621 15V7.86H16.3741V15H14.8621ZM15.6181 6.81C15.3381 6.81 15.0955 6.712 14.8901 6.516C14.6941 6.31067 14.5961 6.068 14.5961 5.788C14.5961 5.49867 14.6941 5.26067 14.8901 5.074C15.0955 4.878 15.3381 4.78 15.6181 4.78C15.9075 4.78 16.1501 4.878 16.3461 5.074C16.5421 5.26067 16.6401 5.49867 16.6401 5.788C16.6401 6.068 16.5421 6.31067 16.3461 6.516C16.1501 6.712 15.9075 6.81 15.6181 6.81ZM21.3497 18.248C20.7244 18.248 20.1831 18.1453 19.7257 17.94C19.2777 17.744 18.9137 17.4873 18.6337 17.17C18.3537 16.862 18.1531 16.5447 18.0317 16.218L19.4317 15.63C19.5811 16.0033 19.8191 16.3067 20.1457 16.54C20.4817 16.7827 20.8831 16.904 21.3497 16.904C22.0124 16.904 22.5304 16.708 22.9037 16.316C23.2771 15.924 23.4637 15.3687 23.4637 14.65V13.964H23.3797C23.1557 14.2907 22.8477 14.5567 22.4557 14.762C22.0637 14.9673 21.6111 15.07 21.0977 15.07C20.4911 15.07 19.9311 14.916 19.4177 14.608C18.9137 14.3 18.5077 13.8707 18.1997 13.32C17.9011 12.76 17.7517 12.1067 17.7517 11.36C17.7517 10.604 17.9011 9.95067 18.1997 9.4C18.5077 8.84 18.9137 8.406 19.4177 8.098C19.9311 7.79 20.4911 7.636 21.0977 7.636C21.6111 7.636 22.0637 7.73867 22.4557 7.944C22.8477 8.14 23.1557 8.41067 23.3797 8.756H23.4637V7.86H24.9057V14.622C24.9057 15.3967 24.7517 16.0547 24.4437 16.596C24.1451 17.1373 23.7297 17.548 23.1977 17.828C22.6657 18.108 22.0497 18.248 21.3497 18.248ZM21.3637 13.698C21.7371 13.698 22.0824 13.6093 22.3997 13.432C22.7264 13.2453 22.9831 12.9793 23.1697 12.634C23.3657 12.2793 23.4637 11.8547 23.4637 11.36C23.4637 10.8373 23.3657 10.4033 23.1697 10.058C22.9831 9.71267 22.7264 9.45133 22.3997 9.274C22.0824 9.09667 21.7371 9.008 21.3637 9.008C20.9904 9.008 20.6404 9.09667 20.3137 9.274C19.9964 9.45133 19.7397 9.71733 19.5437 10.072C19.3477 10.4173 19.2497 10.8467 19.2497 11.36C19.2497 11.864 19.3477 12.2933 19.5437 12.648C19.7397 12.9933 19.9964 13.2547 20.3137 13.432C20.6404 13.6093 20.9904 13.698 21.3637 13.698ZM26.6473 15V4.976H28.1593V7.72L28.0753 8.84H28.1593C28.3553 8.49467 28.654 8.21 29.0553 7.986C29.466 7.75267 29.9186 7.636 30.4133 7.636C31.0106 7.636 31.5053 7.75733 31.8973 8C32.2986 8.24267 32.5973 8.57867 32.7933 9.008C32.9893 9.428 33.0873 9.92267 33.0873 10.492V15H31.5893V10.688C31.5893 10.3053 31.5146 9.99267 31.3653 9.75C31.2253 9.50733 31.0386 9.32533 30.8053 9.204C30.572 9.08267 30.3106 9.022 30.0213 9.022C29.6573 9.022 29.3353 9.12467 29.0553 9.33C28.7753 9.53533 28.556 9.806 28.3973 10.142C28.2386 10.4687 28.1593 10.8187 28.1593 11.192V15H26.6473ZM38.3016 15V4.976H41.7456C42.3523 4.976 42.903 5.10667 43.3976 5.368C43.8923 5.62 44.2843 5.97933 44.5736 6.446C44.8723 6.90333 45.0216 7.43533 45.0216 8.042C45.0216 8.63933 44.8723 9.17133 44.5736 9.638C44.2843 10.1047 43.8923 10.4687 43.3976 10.73C42.903 10.982 42.3523 11.108 41.7456 11.108H39.8416V15H38.3016ZM39.8416 9.652H41.7876C42.1516 9.652 42.4596 9.57733 42.7116 9.428C42.9636 9.26933 43.155 9.06867 43.2856 8.826C43.4256 8.574 43.4956 8.31267 43.4956 8.042C43.4956 7.77133 43.4256 7.51467 43.2856 7.272C43.155 7.02933 42.9636 6.82867 42.7116 6.67C42.4596 6.51133 42.1516 6.432 41.7876 6.432H39.8416V9.652ZM46.3211 15V7.86H47.7491V8.91H47.8331C47.9451 8.66733 48.1038 8.45267 48.3091 8.266C48.5238 8.07933 48.7665 7.93 49.0371 7.818C49.3171 7.706 49.6065 7.65 49.9051 7.65C50.1011 7.65 50.2645 7.664 50.3951 7.692C50.5351 7.71067 50.6611 7.74333 50.7731 7.79V9.358C50.5958 9.28333 50.4138 9.22267 50.2271 9.176C50.0498 9.12933 49.8631 9.106 49.6671 9.106C49.3125 9.106 48.9951 9.204 48.7151 9.4C48.4445 9.58667 48.2298 9.83867 48.0711 10.156C47.9125 10.4733 47.8331 10.828 47.8331 11.22V15H46.3211ZM51.8446 15V7.86H53.3566V15H51.8446ZM52.6006 6.81C52.3206 6.81 52.0779 6.712 51.8726 6.516C51.6766 6.31067 51.5786 6.068 51.5786 5.788C51.5786 5.49867 51.6766 5.26067 51.8726 5.074C52.0779 4.878 52.3206 4.78 52.6006 4.78C52.8899 4.78 53.1326 4.878 53.3286 5.074C53.5246 5.26067 53.6226 5.49867 53.6226 5.788C53.6226 6.068 53.5246 6.31067 53.3286 6.516C53.1326 6.712 52.8899 6.81 52.6006 6.81ZM58.4721 15.224C57.7348 15.224 57.0861 15.056 56.5261 14.72C55.9661 14.384 55.5275 13.9313 55.2101 13.362C54.8928 12.7833 54.7341 12.1393 54.7341 11.43C54.7341 10.7207 54.8928 10.0813 55.2101 9.512C55.5275 8.93333 55.9661 8.476 56.5261 8.14C57.0861 7.804 57.7348 7.636 58.4721 7.636C59.2001 7.636 59.8441 7.80867 60.4041 8.154C60.9641 8.49 61.4028 8.94267 61.7201 9.512C62.0375 10.0813 62.1961 10.7207 62.1961 11.43C62.1961 12.1393 62.0375 12.7833 61.7201 13.362C61.4028 13.9313 60.9641 14.384 60.4041 14.72C59.8441 15.056 59.2001 15.224 58.4721 15.224ZM58.4721 13.838C58.8641 13.838 59.2281 13.7447 59.5641 13.558C59.9001 13.362 60.1708 13.0867 60.3761 12.732C60.5908 12.368 60.6981 11.934 60.6981 11.43C60.6981 10.926 60.5908 10.4967 60.3761 10.142C60.1708 9.778 59.9001 9.50267 59.5641 9.316C59.2281 9.12 58.8641 9.022 58.4721 9.022C58.0801 9.022 57.7115 9.12 57.3661 9.316C57.0301 9.50267 56.7548 9.778 56.5401 10.142C56.3348 10.4967 56.2321 10.926 56.2321 11.43C56.2321 11.934 56.3348 12.368 56.5401 12.732C56.7548 13.0867 57.0348 13.362 57.3801 13.558C57.7255 13.7447 58.0895 13.838 58.4721 13.838ZM63.5477 15V7.86H64.9757V8.91H65.0597C65.1717 8.66733 65.3304 8.45267 65.5357 8.266C65.7504 8.07933 65.993 7.93 66.2637 7.818C66.5437 7.706 66.833 7.65 67.1317 7.65C67.3277 7.65 67.491 7.664 67.6217 7.692C67.7617 7.71067 67.8877 7.74333 67.9997 7.79V9.358C67.8224 9.28333 67.6404 9.22267 67.4537 9.176C67.2764 9.12933 67.0897 9.106 66.8937 9.106C66.539 9.106 66.2217 9.204 65.9417 9.4C65.671 9.58667 65.4564 9.83867 65.2977 10.156C65.139 10.4733 65.0597 10.828 65.0597 11.22V15H63.5477ZM69.0711 15V7.86H70.5831V15H69.0711ZM69.8271 6.81C69.5471 6.81 69.3045 6.712 69.0991 6.516C68.9031 6.31067 68.8051 6.068 68.8051 5.788C68.8051 5.49867 68.9031 5.26067 69.0991 5.074C69.3045 4.878 69.5471 4.78 69.8271 4.78C70.1165 4.78 70.3591 4.878 70.5551 5.074C70.7511 5.26067 70.8491 5.49867 70.8491 5.788C70.8491 6.068 70.7511 6.31067 70.5551 6.516C70.3591 6.712 70.1165 6.81 69.8271 6.81ZM71.8207 9.176V7.86H73.0807V5.844H74.5787V7.86H76.3287V9.176H74.5787V12.606C74.5787 12.9793 74.6534 13.2547 74.8027 13.432C74.9614 13.6093 75.1994 13.698 75.5167 13.698C75.666 13.698 75.806 13.6793 75.9367 13.642C76.0674 13.5953 76.212 13.5253 76.3707 13.432V14.902C76.1934 14.9673 76.0114 15.0187 75.8247 15.056C75.6474 15.0933 75.456 15.112 75.2507 15.112C74.5787 15.112 74.0467 14.916 73.6547 14.524C73.272 14.132 73.0807 13.6 73.0807 12.928V9.176H71.8207ZM80.1461 17.674C80.1181 17.7393 80.0854 17.8047 80.0481 17.87C80.0201 17.9447 80.0014 17.996 79.9921 18.024H78.3821C78.4288 17.9213 78.4941 17.7767 78.5781 17.59C78.6714 17.4033 78.7601 17.2167 78.8441 17.03C78.9001 16.9087 78.9561 16.778 79.0121 16.638C79.0774 16.498 79.1428 16.3533 79.2081 16.204C79.2828 16.0547 79.3528 15.91 79.4181 15.77L79.9501 14.608L76.9681 7.86H78.6481L80.6921 12.732H80.7621L82.7361 7.86H84.4021L80.7061 16.372C80.6408 16.5307 80.5661 16.6987 80.4821 16.876C80.4074 17.0533 80.3374 17.212 80.2721 17.352C80.2161 17.5013 80.1741 17.6087 80.1461 17.674Z" fill="white"/>
</svg>
