<svg width="86" height="20" viewBox="0 0 86 20" fill="none" xmlns="http://www.w3.org/2000/svg">
<rect width="86" height="20" rx="4" transform="matrix(-1 0 0 1 86 0)" fill="#FFE07C"/>
<path d="M5.12 15V4.976H6.66V13.544H10.972V15H5.12ZM15.4604 15.224C14.7231 15.224 14.0744 15.056 13.5144 14.72C12.9544 14.384 12.5158 13.9313 12.1984 13.362C11.8811 12.7833 11.7224 12.1393 11.7224 11.43C11.7224 10.7207 11.8811 10.0813 12.1984 9.512C12.5158 8.93333 12.9544 8.476 13.5144 8.14C14.0744 7.804 14.7231 7.636 15.4604 7.636C16.1884 7.636 16.8324 7.80867 17.3924 8.154C17.9524 8.49 18.3911 8.94267 18.7084 9.512C19.0258 10.0813 19.1844 10.7207 19.1844 11.43C19.1844 12.1393 19.0258 12.7833 18.7084 13.362C18.3911 13.9313 17.9524 14.384 17.3924 14.72C16.8324 15.056 16.1884 15.224 15.4604 15.224ZM15.4604 13.838C15.8524 13.838 16.2164 13.7447 16.5524 13.558C16.8884 13.362 17.1591 13.0867 17.3644 12.732C17.5791 12.368 17.6864 11.934 17.6864 11.43C17.6864 10.926 17.5791 10.4967 17.3644 10.142C17.1591 9.778 16.8884 9.50267 16.5524 9.316C16.2164 9.12 15.8524 9.022 15.4604 9.022C15.0684 9.022 14.6998 9.12 14.3544 9.316C14.0184 9.50267 13.7431 9.778 13.5284 10.142C13.3231 10.4967 13.2204 10.926 13.2204 11.43C13.2204 11.934 13.3231 12.368 13.5284 12.732C13.7431 13.0867 14.0231 13.362 14.3684 13.558C14.7138 13.7447 15.0778 13.838 15.4604 13.838ZM21.9656 15L19.6836 7.86H21.3216L22.7916 12.998H22.8476L24.4576 7.86H26.0116L27.6216 12.998H27.6776L29.1476 7.86H30.7576L28.4616 15H26.8796L25.2276 9.834H25.1716L23.5336 15H21.9656ZM35.2255 15V4.976H38.6695C39.2761 4.976 39.8268 5.10667 40.3215 5.368C40.8161 5.62 41.2081 5.97933 41.4975 6.446C41.7961 6.90333 41.9455 7.43533 41.9455 8.042C41.9455 8.63933 41.7961 9.17133 41.4975 9.638C41.2081 10.1047 40.8161 10.4687 40.3215 10.73C39.8268 10.982 39.2761 11.108 38.6695 11.108H36.7655V15H35.2255ZM36.7655 9.652H38.7115C39.0755 9.652 39.3835 9.57733 39.6355 9.428C39.8875 9.26933 40.0788 9.06867 40.2095 8.826C40.3495 8.574 40.4195 8.31267 40.4195 8.042C40.4195 7.77133 40.3495 7.51467 40.2095 7.272C40.0788 7.02933 39.8875 6.82867 39.6355 6.67C39.3835 6.51133 39.0755 6.432 38.7115 6.432H36.7655V9.652ZM43.245 15V7.86H44.673V8.91H44.757C44.869 8.66733 45.0276 8.45267 45.233 8.266C45.4476 8.07933 45.6903 7.93 45.961 7.818C46.241 7.706 46.5303 7.65 46.829 7.65C47.025 7.65 47.1883 7.664 47.319 7.692C47.459 7.71067 47.585 7.74333 47.697 7.79V9.358C47.5196 9.28333 47.3376 9.22267 47.151 9.176C46.9736 9.12933 46.787 9.106 46.591 9.106C46.2363 9.106 45.919 9.204 45.639 9.4C45.3683 9.58667 45.1536 9.83867 44.995 10.156C44.8363 10.4733 44.757 10.828 44.757 11.22V15H43.245ZM48.7684 15V7.86H50.2804V15H48.7684ZM49.5244 6.81C49.2444 6.81 49.0017 6.712 48.7964 6.516C48.6004 6.31067 48.5024 6.068 48.5024 5.788C48.5024 5.49867 48.6004 5.26067 48.7964 5.074C49.0017 4.878 49.2444 4.78 49.5244 4.78C49.8137 4.78 50.0564 4.878 50.2524 5.074C50.4484 5.26067 50.5464 5.49867 50.5464 5.788C50.5464 6.068 50.4484 6.31067 50.2524 6.516C50.0564 6.712 49.8137 6.81 49.5244 6.81ZM55.396 15.224C54.6586 15.224 54.01 15.056 53.45 14.72C52.89 14.384 52.4513 13.9313 52.134 13.362C51.8166 12.7833 51.658 12.1393 51.658 11.43C51.658 10.7207 51.8166 10.0813 52.134 9.512C52.4513 8.93333 52.89 8.476 53.45 8.14C54.01 7.804 54.6586 7.636 55.396 7.636C56.124 7.636 56.768 7.80867 57.328 8.154C57.888 8.49 58.3266 8.94267 58.644 9.512C58.9613 10.0813 59.12 10.7207 59.12 11.43C59.12 12.1393 58.9613 12.7833 58.644 13.362C58.3266 13.9313 57.888 14.384 57.328 14.72C56.768 15.056 56.124 15.224 55.396 15.224ZM55.396 13.838C55.788 13.838 56.152 13.7447 56.488 13.558C56.824 13.362 57.0946 13.0867 57.3 12.732C57.5146 12.368 57.622 11.934 57.622 11.43C57.622 10.926 57.5146 10.4967 57.3 10.142C57.0946 9.778 56.824 9.50267 56.488 9.316C56.152 9.12 55.788 9.022 55.396 9.022C55.004 9.022 54.6353 9.12 54.29 9.316C53.954 9.50267 53.6786 9.778 53.464 10.142C53.2586 10.4967 53.156 10.926 53.156 11.43C53.156 11.934 53.2586 12.368 53.464 12.732C53.6786 13.0867 53.9586 13.362 54.304 13.558C54.6493 13.7447 55.0133 13.838 55.396 13.838ZM60.4715 15V7.86H61.8995V8.91H61.9835C62.0955 8.66733 62.2542 8.45267 62.4595 8.266C62.6742 8.07933 62.9168 7.93 63.1875 7.818C63.4675 7.706 63.7568 7.65 64.0555 7.65C64.2515 7.65 64.4148 7.664 64.5455 7.692C64.6855 7.71067 64.8115 7.74333 64.9235 7.79V9.358C64.7462 9.28333 64.5642 9.22267 64.3775 9.176C64.2002 9.12933 64.0135 9.106 63.8175 9.106C63.4628 9.106 63.1455 9.204 62.8655 9.4C62.5948 9.58667 62.3802 9.83867 62.2215 10.156C62.0628 10.4733 61.9835 10.828 61.9835 11.22V15H60.4715ZM65.995 15V7.86H67.507V15H65.995ZM66.751 6.81C66.471 6.81 66.2283 6.712 66.023 6.516C65.827 6.31067 65.729 6.068 65.729 5.788C65.729 5.49867 65.827 5.26067 66.023 5.074C66.2283 4.878 66.471 4.78 66.751 4.78C67.0403 4.78 67.283 4.878 67.479 5.074C67.675 5.26067 67.773 5.49867 67.773 5.788C67.773 6.068 67.675 6.31067 67.479 6.516C67.283 6.712 67.0403 6.81 66.751 6.81ZM68.7445 9.176V7.86H70.0045V5.844H71.5025V7.86H73.2525V9.176H71.5025V12.606C71.5025 12.9793 71.5772 13.2547 71.7265 13.432C71.8852 13.6093 72.1232 13.698 72.4405 13.698C72.5899 13.698 72.7299 13.6793 72.8605 13.642C72.9912 13.5953 73.1359 13.5253 73.2945 13.432V14.902C73.1172 14.9673 72.9352 15.0187 72.7485 15.056C72.5712 15.0933 72.3799 15.112 72.1745 15.112C71.5025 15.112 70.9705 14.916 70.5785 14.524C70.1959 14.132 70.0045 13.6 70.0045 12.928V9.176H68.7445ZM77.0699 17.674C77.0419 17.7393 77.0093 17.8047 76.9719 17.87C76.9439 17.9447 76.9253 17.996 76.9159 18.024H75.3059C75.3526 17.9213 75.4179 17.7767 75.5019 17.59C75.5953 17.4033 75.6839 17.2167 75.7679 17.03C75.8239 16.9087 75.8799 16.778 75.9359 16.638C76.0013 16.498 76.0666 16.3533 76.1319 16.204C76.2066 16.0547 76.2766 15.91 76.3419 15.77L76.8739 14.608L73.8919 7.86H75.5719L77.6159 12.732H77.6859L79.6599 7.86H81.3259L77.6299 16.372C77.5646 16.5307 77.4899 16.6987 77.4059 16.876C77.3313 17.0533 77.2613 17.212 77.1959 17.352C77.1399 17.5013 77.0979 17.6087 77.0699 17.674Z" fill="black"/>
</svg>
