<svg width="112" height="20" viewBox="0 0 112 20" fill="none" xmlns="http://www.w3.org/2000/svg">
<rect width="112" height="20" rx="4" transform="matrix(-1 0 0 1 112 0)" fill="#EF9800"/>
<path d="M5.12 15V4.976H7.192L10.118 12.606H10.202L13.142 4.976H15.214V15H13.702V9.33L13.786 7.552H13.702L10.776 15H9.558L6.632 7.552H6.548L6.632 9.33V15H5.12ZM20.462 15.224C19.762 15.224 19.1367 15.0607 18.586 14.734C18.0354 14.4073 17.6014 13.9593 17.284 13.39C16.976 12.8207 16.822 12.172 16.822 11.444C16.822 10.7627 16.9714 10.1327 17.27 9.554C17.5687 8.97533 17.984 8.51333 18.516 8.168C19.0574 7.81333 19.678 7.636 20.378 7.636C21.1154 7.636 21.7407 7.79467 22.254 8.112C22.7767 8.42933 23.1734 8.86333 23.444 9.414C23.7147 9.96467 23.85 10.5853 23.85 11.276C23.85 11.3787 23.8454 11.472 23.836 11.556C23.836 11.64 23.8314 11.7053 23.822 11.752H18.306C18.3434 12.144 18.4414 12.4847 18.6 12.774C18.8054 13.138 19.076 13.4133 19.412 13.6C19.748 13.7867 20.112 13.88 20.504 13.88C20.98 13.88 21.3767 13.7727 21.694 13.558C22.0207 13.334 22.2774 13.0587 22.464 12.732L23.71 13.334C23.402 13.894 22.982 14.3513 22.45 14.706C21.918 15.0513 21.2554 15.224 20.462 15.224ZM18.39 10.618H22.352C22.3427 10.4407 22.296 10.254 22.212 10.058C22.128 9.85267 22.0067 9.666 21.848 9.498C21.6894 9.33 21.4887 9.19467 21.246 9.092C21.0034 8.98 20.7187 8.924 20.392 8.924C19.9814 8.924 19.6174 9.03133 19.3 9.246C18.9827 9.45133 18.7354 9.74067 18.558 10.114C18.4834 10.2727 18.4274 10.4407 18.39 10.618ZM28.2638 15.224C27.6198 15.224 27.0364 15.0607 26.5138 14.734C25.9911 14.4073 25.5804 13.9593 25.2818 13.39C24.9831 12.8207 24.8338 12.1673 24.8338 11.43C24.8338 10.6927 24.9831 10.0393 25.2818 9.47C25.5804 8.90067 25.9911 8.45267 26.5138 8.126C27.0364 7.79933 27.6198 7.636 28.2638 7.636C28.6371 7.636 28.9731 7.692 29.2718 7.804C29.5704 7.916 29.8271 8.06533 30.0418 8.252C30.2658 8.42933 30.4384 8.62067 30.5598 8.826H30.6438L30.5598 7.832V4.976H32.0577V15H30.6438V14.048H30.5598C30.4384 14.244 30.2658 14.4353 30.0418 14.622C29.8271 14.7993 29.5704 14.944 29.2718 15.056C28.9731 15.168 28.6371 15.224 28.2638 15.224ZM28.4878 13.838C28.8611 13.838 29.2111 13.74 29.5378 13.544C29.8738 13.348 30.1398 13.0727 30.3358 12.718C30.5411 12.354 30.6438 11.9247 30.6438 11.43C30.6438 10.9353 30.5411 10.5107 30.3358 10.156C30.1398 9.792 29.8738 9.512 29.5378 9.316C29.2111 9.12 28.8611 9.022 28.4878 9.022C28.1144 9.022 27.7644 9.12 27.4378 9.316C27.1111 9.512 26.8451 9.792 26.6398 10.156C26.4344 10.5107 26.3318 10.9353 26.3318 11.43C26.3318 11.9153 26.4344 12.34 26.6398 12.704C26.8451 13.068 27.1111 13.348 27.4378 13.544C27.7644 13.74 28.1144 13.838 28.4878 13.838ZM33.8114 15V7.86H35.3234V15H33.8114ZM34.5674 6.81C34.2874 6.81 34.0447 6.712 33.8394 6.516C33.6434 6.31067 33.5454 6.068 33.5454 5.788C33.5454 5.49867 33.6434 5.26067 33.8394 5.074C34.0447 4.878 34.2874 4.78 34.5674 4.78C34.8567 4.78 35.0994 4.878 35.2954 5.074C35.4914 5.26067 35.5894 5.49867 35.5894 5.788C35.5894 6.068 35.4914 6.31067 35.2954 6.516C35.0994 6.712 34.8567 6.81 34.5674 6.81ZM39.6689 15.224C38.7916 15.224 38.1289 14.9627 37.6809 14.44C37.2423 13.908 37.0229 13.1893 37.0229 12.284V7.86H38.5349V12.074C38.5349 12.6713 38.6749 13.1147 38.9549 13.404C39.2443 13.6933 39.6036 13.838 40.0329 13.838C40.4249 13.838 40.7609 13.74 41.0409 13.544C41.3209 13.3387 41.5356 13.0727 41.6849 12.746C41.8436 12.4193 41.9229 12.0693 41.9229 11.696V7.86H43.4209V15H42.0069V14.034H41.9229C41.7923 14.258 41.6103 14.4587 41.3769 14.636C41.1436 14.8133 40.8823 14.9533 40.5929 15.056C40.3036 15.168 39.9956 15.224 39.6689 15.224ZM45.1727 15V7.86H46.6007V8.84H46.6847C46.8247 8.60667 47.0067 8.40133 47.2307 8.224C47.4547 8.04667 47.7067 7.90667 47.9867 7.804C48.276 7.692 48.5747 7.636 48.8827 7.636C49.4147 7.636 49.8674 7.762 50.2407 8.014C50.614 8.266 50.88 8.58333 51.0387 8.966C51.272 8.59267 51.5894 8.28 51.9907 8.028C52.392 7.76667 52.882 7.636 53.4607 7.636C54.3007 7.636 54.926 7.89267 55.3367 8.406C55.7474 8.91 55.9527 9.582 55.9527 10.422V15H54.4547V10.674C54.4547 10.0953 54.3287 9.67533 54.0767 9.414C53.834 9.15267 53.4934 9.022 53.0547 9.022C52.7094 9.022 52.406 9.12 52.1447 9.316C51.8834 9.50267 51.678 9.75933 51.5287 10.086C51.3887 10.4127 51.3187 10.7767 51.3187 11.178V15H49.8207V10.674C49.8207 10.1047 49.6947 9.68933 49.4427 9.428C49.1907 9.15733 48.836 9.022 48.3787 9.022C48.052 9.022 47.758 9.12 47.4967 9.316C47.2447 9.512 47.044 9.77333 46.8947 10.1C46.7547 10.4267 46.6847 10.7907 46.6847 11.192V15H45.1727ZM61.1473 15V4.976H64.5913C65.198 4.976 65.7487 5.10667 66.2433 5.368C66.738 5.62 67.13 5.97933 67.4193 6.446C67.718 6.90333 67.8673 7.43533 67.8673 8.042C67.8673 8.63933 67.718 9.17133 67.4193 9.638C67.13 10.1047 66.738 10.4687 66.2433 10.73C65.7487 10.982 65.198 11.108 64.5913 11.108H62.6873V15H61.1473ZM62.6873 9.652H64.6333C64.9973 9.652 65.3053 9.57733 65.5573 9.428C65.8093 9.26933 66.0007 9.06867 66.1313 8.826C66.2713 8.574 66.3413 8.31267 66.3413 8.042C66.3413 7.77133 66.2713 7.51467 66.1313 7.272C66.0007 7.02933 65.8093 6.82867 65.5573 6.67C65.3053 6.51133 64.9973 6.432 64.6333 6.432H62.6873V9.652ZM69.1668 15V7.86H70.5948V8.91H70.6788C70.7908 8.66733 70.9495 8.45267 71.1548 8.266C71.3695 8.07933 71.6122 7.93 71.8828 7.818C72.1628 7.706 72.4522 7.65 72.7508 7.65C72.9468 7.65 73.1102 7.664 73.2408 7.692C73.3808 7.71067 73.5068 7.74333 73.6188 7.79V9.358C73.4415 9.28333 73.2595 9.22267 73.0728 9.176C72.8955 9.12933 72.7088 9.106 72.5128 9.106C72.1582 9.106 71.8408 9.204 71.5608 9.4C71.2902 9.58667 71.0755 9.83867 70.9168 10.156C70.7582 10.4733 70.6788 10.828 70.6788 11.22V15H69.1668ZM74.6903 15V7.86H76.2023V15H74.6903ZM75.4463 6.81C75.1663 6.81 74.9236 6.712 74.7183 6.516C74.5223 6.31067 74.4243 6.068 74.4243 5.788C74.4243 5.49867 74.5223 5.26067 74.7183 5.074C74.9236 4.878 75.1663 4.78 75.4463 4.78C75.7356 4.78 75.9783 4.878 76.1743 5.074C76.3703 5.26067 76.4683 5.49867 76.4683 5.788C76.4683 6.068 76.3703 6.31067 76.1743 6.516C75.9783 6.712 75.7356 6.81 75.4463 6.81ZM81.3178 15.224C80.5805 15.224 79.9318 15.056 79.3718 14.72C78.8118 14.384 78.3732 13.9313 78.0558 13.362C77.7385 12.7833 77.5798 12.1393 77.5798 11.43C77.5798 10.7207 77.7385 10.0813 78.0558 9.512C78.3732 8.93333 78.8118 8.476 79.3718 8.14C79.9318 7.804 80.5805 7.636 81.3178 7.636C82.0458 7.636 82.6898 7.80867 83.2498 8.154C83.8098 8.49 84.2485 8.94267 84.5658 9.512C84.8832 10.0813 85.0418 10.7207 85.0418 11.43C85.0418 12.1393 84.8832 12.7833 84.5658 13.362C84.2485 13.9313 83.8098 14.384 83.2498 14.72C82.6898 15.056 82.0458 15.224 81.3178 15.224ZM81.3178 13.838C81.7098 13.838 82.0738 13.7447 82.4098 13.558C82.7458 13.362 83.0165 13.0867 83.2218 12.732C83.4365 12.368 83.5438 11.934 83.5438 11.43C83.5438 10.926 83.4365 10.4967 83.2218 10.142C83.0165 9.778 82.7458 9.50267 82.4098 9.316C82.0738 9.12 81.7098 9.022 81.3178 9.022C80.9258 9.022 80.5572 9.12 80.2118 9.316C79.8758 9.50267 79.6005 9.778 79.3858 10.142C79.1805 10.4967 79.0778 10.926 79.0778 11.43C79.0778 11.934 79.1805 12.368 79.3858 12.732C79.6005 13.0867 79.8805 13.362 80.2258 13.558C80.5712 13.7447 80.9352 13.838 81.3178 13.838ZM86.3934 15V7.86H87.8214V8.91H87.9054C88.0174 8.66733 88.1761 8.45267 88.3814 8.266C88.5961 8.07933 88.8387 7.93 89.1094 7.818C89.3894 7.706 89.6787 7.65 89.9774 7.65C90.1734 7.65 90.3367 7.664 90.4674 7.692C90.6074 7.71067 90.7334 7.74333 90.8454 7.79V9.358C90.6681 9.28333 90.4861 9.22267 90.2994 9.176C90.1221 9.12933 89.9354 9.106 89.7394 9.106C89.3847 9.106 89.0674 9.204 88.7874 9.4C88.5167 9.58667 88.3021 9.83867 88.1434 10.156C87.9847 10.4733 87.9054 10.828 87.9054 11.22V15H86.3934ZM91.9168 15V7.86H93.4288V15H91.9168ZM92.6728 6.81C92.3928 6.81 92.1502 6.712 91.9448 6.516C91.7488 6.31067 91.6508 6.068 91.6508 5.788C91.6508 5.49867 91.7488 5.26067 91.9448 5.074C92.1502 4.878 92.3928 4.78 92.6728 4.78C92.9622 4.78 93.2048 4.878 93.4008 5.074C93.5968 5.26067 93.6948 5.49867 93.6948 5.788C93.6948 6.068 93.5968 6.31067 93.4008 6.516C93.2048 6.712 92.9622 6.81 92.6728 6.81ZM94.6664 9.176V7.86H95.9264V5.844H97.4244V7.86H99.1744V9.176H97.4244V12.606C97.4244 12.9793 97.4991 13.2547 97.6484 13.432C97.8071 13.6093 98.0451 13.698 98.3624 13.698C98.5117 13.698 98.6517 13.6793 98.7824 13.642C98.9131 13.5953 99.0577 13.5253 99.2164 13.432V14.902C99.0391 14.9673 98.8571 15.0187 98.6704 15.056C98.4931 15.0933 98.3017 15.112 98.0964 15.112C97.4244 15.112 96.8924 14.916 96.5004 14.524C96.1177 14.132 95.9264 13.6 95.9264 12.928V9.176H94.6664ZM102.992 17.674C102.964 17.7393 102.931 17.8047 102.894 17.87C102.866 17.9447 102.847 17.996 102.838 18.024H101.228C101.274 17.9213 101.34 17.7767 101.424 17.59C101.517 17.4033 101.606 17.2167 101.69 17.03C101.746 16.9087 101.802 16.778 101.858 16.638C101.923 16.498 101.988 16.3533 102.054 16.204C102.128 16.0547 102.198 15.91 102.264 15.77L102.796 14.608L99.8138 7.86H101.494L103.538 12.732H103.608L105.582 7.86H107.248L103.552 16.372C103.486 16.5307 103.412 16.6987 103.328 16.876C103.253 17.0533 103.183 17.212 103.118 17.352C103.062 17.5013 103.02 17.6087 102.992 17.674Z" fill="black"/>
</svg>
